<?xml version="1.0" encoding="UTF-8"?>
<!DOCTYPE svg PUBLIC "-//W3C//DTD SVG 1.1//EN" "http://www.w3.org/Graphics/SVG/1.1/DTD/svg11.dtd">
<svg xmlns="http://www.w3.org/2000/svg" version="1.1" width="1788px" height="1788px" style="shape-rendering:geometricPrecision; text-rendering:geometricPrecision; image-rendering:optimizeQuality; fill-rule:evenodd; clip-rule:evenodd" xmlns:xlink="http://www.w3.org/1999/xlink">
<g><path style="opacity:1" fill="#989c9f" d="M 677.5,-0.5 C 680.833,-0.5 684.167,-0.5 687.5,-0.5C 691.189,2.02855 694.022,5.36188 696,9.5C 721.681,55.5319 747.348,101.532 773,147.5C 773.689,148.357 774.522,149.023 775.5,149.5C 854.591,136.183 933.591,136.183 1012.5,149.5C 1039.48,102.891 1065.98,55.8911 1092,8.5C 1094.02,4.64434 1096.86,1.64434 1100.5,-0.5C 1103.17,-0.5 1105.83,-0.5 1108.5,-0.5C 1203.51,23.1113 1292.84,60.278 1376.5,111C 1379.22,113.9 1380.56,117.067 1380.5,120.5C 1365.47,174.413 1350.14,228.579 1334.5,283C 1378.63,315.116 1419.13,351.616 1456,392.5C 1472.42,412.071 1488.58,431.737 1504.5,451.5C 1557.88,436.748 1610.88,421.915 1663.5,407C 1667.71,405.98 1671.38,406.98 1674.5,410C 1726.02,493.213 1763.68,582.38 1787.5,677.5C 1787.5,680.5 1787.5,683.5 1787.5,686.5C 1784.01,690.929 1779.68,694.429 1774.5,697C 1729.48,722.033 1684.48,747.033 1639.5,772C 1638.2,772.804 1637.53,773.971 1637.5,775.5C 1649.5,853.997 1649.5,932.497 1637.5,1011C 1637.83,1011.83 1638.17,1012.67 1638.5,1013.5C 1687.72,1040.57 1736.55,1068.23 1785,1096.5C 1785.76,1098.31 1786.59,1099.98 1787.5,1101.5C 1787.5,1103.17 1787.5,1104.83 1787.5,1106.5C 1764.19,1202.11 1726.86,1291.77 1675.5,1375.5C 1671.89,1379.17 1667.55,1380.33 1662.5,1379C 1610.49,1364.33 1558.49,1349.66 1506.5,1335C 1505.06,1334.22 1503.72,1334.39 1502.5,1335.5C 1455.5,1400.3 1399.5,1456.13 1334.5,1503C 1347.2,1547.36 1359.7,1591.2 1372,1634.5C 1374.52,1644.59 1377.36,1654.59 1380.5,1664.5C 1380.01,1667.8 1378.85,1670.8 1377,1673.5C 1292.69,1726.22 1202.19,1764.22 1105.5,1787.5C 1104.83,1787.5 1104.17,1787.5 1103.5,1787.5C 1099.72,1786.68 1096.55,1784.68 1094,1781.5C 1067.83,1732.53 1040.67,1684.19 1012.5,1636.5C 933.344,1649.83 854.177,1649.83 775,1636.5C 746.934,1684.29 719.6,1732.62 693,1781.5C 690.333,1784.5 687,1786.17 683,1786.5C 589.789,1765 502.289,1729.83 420.5,1681C 416.4,1678.53 412.566,1675.7 409,1672.5C 407.496,1668.96 407.163,1665.29 408,1661.5C 422.908,1608.46 437.575,1555.46 452,1502.5C 387,1454.83 330.667,1398.5 283,1333.5C 229.099,1349.59 175.266,1364.92 121.5,1379.5C 118.512,1379.28 115.845,1378.28 113.5,1376.5C 61.1158,1293.04 23.1158,1203.37 -0.5,1107.5C -0.5,1105.17 -0.5,1102.83 -0.5,1100.5C 0.782988,1098.13 2.44965,1095.97 4.5,1094C 52.3385,1066.91 100.338,1040.08 148.5,1013.5C 148.833,1012.33 149.167,1011.17 149.5,1010C 137.52,931.717 137.52,853.717 149.5,776C 149.167,774.833 148.833,773.667 148.5,772.5C 101.854,745.84 54.8544,719.674 7.5,694C 2.83211,691.327 0.498775,687.327 0.5,682C 17.6313,606.267 44.1313,534.1 80,465.5C 89.7468,447.671 99.7468,430.004 110,412.5C 113.742,407.709 118.576,405.876 124.5,407C 173.498,420.871 222.832,434.871 272.5,449C 276.488,450.117 280.488,450.784 284.5,451C 332.007,386.326 388.007,330.159 452.5,282.5C 437.192,228.744 422.192,174.911 407.5,121C 408.09,115.064 411.09,110.731 416.5,108C 498.093,58.5283 585.093,22.3616 677.5,-0.5 Z"/></g>
<g><path style="opacity:1" fill="#fe2f01" d="M 1174.5,355.5 C 1173.21,356.29 1172.04,357.29 1171,358.5C 1164.95,368.688 1158.78,378.688 1152.5,388.5C 1137.32,412.709 1121.65,436.709 1105.5,460.5C 1102.58,466.677 1098.91,472.344 1094.5,477.5C 1091.68,482.498 1089.02,487.498 1086.5,492.5C 1085.53,493.984 1084.19,494.484 1082.5,494C 1073.35,484.347 1064.01,474.847 1054.5,465.5C 1044.08,456.946 1033.41,448.779 1022.5,441C 1009.41,432.4 995.743,424.9 981.5,418.5C 994.881,392.073 1008.55,365.74 1022.5,339.5C 1029.45,327.972 1035.45,315.972 1040.5,303.5C 1063.2,261.251 1085.7,218.918 1108,176.5C 1112.49,172.829 1117.66,171.662 1123.5,173C 1161.74,188.996 1200.07,204.83 1238.5,220.5C 1241.65,221.907 1244.65,223.574 1247.5,225.5C 1248.66,228.271 1249.66,231.438 1250.5,235C 1228.02,270.156 1205.18,305.656 1182,341.5C 1179.23,346.05 1176.73,350.717 1174.5,355.5 Z"/></g>
<g><path style="opacity:1" fill="#eff0f1" d="M 1040.5,303.5 C 1035.45,315.972 1029.45,327.972 1022.5,339.5C 858.72,304.786 707.72,333.953 569.5,427C 438.553,521.06 359.386,647.893 332,807.5C 309.417,981.349 354.417,1134.68 467,1267.5C 523.193,1331.04 590.026,1379.88 667.5,1414C 670.353,1415.43 673.353,1416.26 676.5,1416.5C 670.146,1428.54 663.812,1440.54 657.5,1452.5C 499.445,1382.28 388.612,1266.95 325,1106.5C 272.115,959.271 273.781,812.605 330,666.5C 399.059,504.44 515.226,390.606 678.5,325C 796.974,281.259 917.641,274.092 1040.5,303.5 Z"/></g>
<g><path style="opacity:1" fill="#00458e" d="M 1022.5,339.5 C 1008.55,365.74 994.881,392.073 981.5,418.5C 975.659,416.678 969.993,414.344 964.5,411.5C 950.114,407.377 935.448,404.21 920.5,402C 920,401.5 919.5,401 919,400.5C 902.372,400.364 885.539,400.531 868.5,401C 853.147,402.621 838.147,405.788 823.5,410.5C 790.051,428.287 757.051,447.121 724.5,467C 700.402,483.33 679.069,501.83 660.5,522.5C 659.153,523.171 657.986,523.171 657,522.5C 655.887,523.76 655.72,524.927 656.5,526C 655.5,526.333 654.5,526.667 653.5,527C 654.258,528.364 653.758,529.531 652,530.5C 651.239,533.053 650.406,535.553 649.5,538C 650.167,543.667 650.833,549.333 651.5,555C 651.167,555.333 650.833,555.667 650.5,556C 651.079,559.139 652.079,562.139 653.5,565C 653.167,565.333 652.833,565.667 652.5,566C 653.708,568.25 655.041,570.417 656.5,572.5C 657.198,573.863 657.198,575.029 656.5,576C 657.984,576.662 659.317,577.496 660.5,578.5C 663.974,584.556 667.141,590.89 670,597.5C 675.77,612.09 681.27,626.757 686.5,641.5C 686.44,644.021 687.106,646.354 688.5,648.5C 687.288,652.592 688.121,655.592 691,657.5C 691.494,659.134 691.66,660.801 691.5,662.5C 692.5,662.5 693.5,662.5 694.5,662.5C 695.83,665.704 696.996,669.038 698,672.5C 698.814,675.177 700.314,677.177 702.5,678.5C 723.574,725.405 741.241,773.239 755.5,822C 757.305,827.324 758.305,832.824 758.5,838.5C 755.36,846.814 751.526,854.814 747,862.5C 746.51,863.793 746.343,865.127 746.5,866.5C 741.584,865.709 736.751,865.709 732,866.5C 719.368,860.262 707.201,853.095 695.5,845C 673.427,834.296 651.427,823.629 629.5,813C 621.483,809.841 613.483,807.008 605.5,804.5C 604.129,803.213 602.295,802.547 600,802.5C 598.167,802.667 596.333,802.833 594.5,803C 594.833,803.333 595.167,803.667 595.5,804C 592.149,804.283 589.149,805.45 586.5,807.5C 585.949,810.056 584.949,812.389 583.5,814.5C 582.806,811.403 581.806,811.069 580.5,813.5C 580.977,814.478 581.643,815.311 582.5,816C 582.384,817.268 582.051,818.602 581.5,820C 582.31,825.751 582.81,831.584 583,837.5C 584.057,839.219 584.89,841.053 585.5,843C 585.167,843.333 584.833,843.667 584.5,844C 586,846.167 587.833,848 590,849.5C 590.557,851.615 591.391,853.615 592.5,855.5C 593.861,855.788 595.194,856.121 596.5,856.5C 601.178,863.165 606.345,869.498 612,875.5C 613.503,880.957 612.336,885.624 608.5,889.5C 601.362,892.237 594.362,895.237 587.5,898.5C 587.878,908.211 588.711,917.878 590,927.5C 596.128,938.774 602.461,949.774 609,960.5C 610.9,965.694 612.067,971.027 612.5,976.5C 612.678,979.879 612.678,983.045 612.5,986C 614.944,989.147 615.944,992.48 615.5,996C 617.378,999.591 619.378,1003.09 621.5,1006.5C 621.291,1007.09 620.957,1007.59 620.5,1008C 624.325,1010.83 628.158,1013.67 632,1016.5C 633.299,1016.03 634.799,1016.03 636.5,1016.5C 638.921,1017.89 641.588,1018.72 644.5,1019C 643.549,1019.72 643.383,1020.55 644,1021.5C 646.876,1024.72 649.709,1028.05 652.5,1031.5C 653.946,1033.62 654.613,1035.95 654.5,1038.5C 651.014,1045.47 647.347,1052.3 643.5,1059C 633.963,1076.56 624.629,1094.73 615.5,1113.5C 613.241,1114.34 612.241,1116.01 612.5,1118.5C 600.589,1140.64 588.756,1163.3 577,1186.5C 576.182,1189.23 576.348,1191.89 577.5,1194.5C 582.074,1202.56 588.407,1204.23 596.5,1199.5C 605.853,1189.81 615.519,1180.48 625.5,1171.5C 655.81,1140.64 686.81,1110.3 718.5,1080.5C 720.122,1079.88 721.455,1078.88 722.5,1077.5C 733.825,1078.67 745.158,1080 756.5,1081.5C 760.568,1085.77 763.735,1090.77 766,1096.5C 778.371,1127.61 784.537,1160.27 784.5,1194.5C 783.833,1195.83 783.167,1197.17 782.5,1198.5C 748.091,1270.48 712.757,1341.98 676.5,1413C 677.171,1413.99 677.171,1415.15 676.5,1416.5C 673.353,1416.26 670.353,1415.43 667.5,1414C 590.026,1379.88 523.193,1331.04 467,1267.5C 354.417,1134.68 309.417,981.349 332,807.5C 359.386,647.893 438.553,521.06 569.5,427C 707.72,333.953 858.72,304.786 1022.5,339.5 Z"/></g>
<g><path style="opacity:1" fill="#eff0f1" d="M 1174.5,355.5 C 1314.51,430.692 1412.01,543.025 1467,692.5C 1505.05,804.11 1511.05,917.444 1485,1032.5C 1440.03,1206.39 1339.86,1337.56 1184.5,1426C 1048.07,1498.23 904.407,1517.57 753.5,1484C 733.011,1478.63 712.678,1472.8 692.5,1466.5C 698.396,1454.37 705.063,1442.71 712.5,1431.5C 852.3,1476 989.633,1469.5 1124.5,1412C 1259.6,1349.57 1357.1,1250.07 1417,1113.5C 1465.55,994.36 1474.22,872.36 1443,747.5C 1401.02,601.279 1315.85,487.779 1187.5,407C 1175.96,400.642 1164.3,394.475 1152.5,388.5C 1158.78,378.688 1164.95,368.688 1171,358.5C 1172.04,357.29 1173.21,356.29 1174.5,355.5 Z"/></g>
<g><path style="opacity:1" fill="#00458e" d="M 1152.5,388.5 C 1164.3,394.475 1175.96,400.642 1187.5,407C 1315.85,487.779 1401.02,601.279 1443,747.5C 1474.22,872.36 1465.55,994.36 1417,1113.5C 1357.1,1250.07 1259.6,1349.57 1124.5,1412C 989.633,1469.5 852.3,1476 712.5,1431.5C 735.9,1392.97 758.9,1354.63 781.5,1316.5C 783.892,1320.96 786.058,1325.62 788,1330.5C 793.392,1338.92 799.226,1346.92 805.5,1354.5C 814.492,1362.15 823.825,1369.48 833.5,1376.5C 845.539,1383.47 858.539,1386.8 872.5,1386.5C 894.232,1385.28 915.566,1381.78 936.5,1376C 945.276,1363.89 954.443,1352.05 964,1340.5C 970.506,1328.65 977.839,1317.32 986,1306.5C 988.095,1295.94 988.928,1285.28 988.5,1274.5C 989.043,1274.44 989.376,1274.11 989.5,1273.5C 988.4,1266.98 987.4,1260.48 986.5,1254C 987.654,1253.09 987.487,1252.25 986,1251.5C 981.707,1228.18 981.541,1204.68 985.5,1181C 985.257,1180.1 984.923,1179.26 984.5,1178.5C 985.836,1170.82 987.336,1163.15 989,1155.5C 994.292,1141.71 1000.13,1127.88 1006.5,1114C 1006.36,1113.23 1006.02,1112.56 1005.5,1112C 1006.63,1109.28 1008.13,1106.78 1010,1104.5C 1012.6,1095.97 1015.77,1087.63 1019.5,1079.5C 1040.92,1079.73 1061.92,1077.23 1082.5,1072C 1091.33,1067.19 1099.66,1061.52 1107.5,1055C 1111.38,1052.96 1115.38,1051.13 1119.5,1049.5C 1120.75,1047.96 1120.75,1046.46 1119.5,1045C 1124.25,1042.69 1126.92,1038.85 1127.5,1033.5C 1129.92,1030.34 1132.08,1027 1134,1023.5C 1136.14,1021.17 1138.64,1019.51 1141.5,1018.5C 1144.59,1018.25 1147.42,1017.25 1150,1015.5C 1150.33,1015.83 1150.67,1016.17 1151,1016.5C 1152.96,1014.09 1154.79,1011.59 1156.5,1009C 1157.79,1008.51 1159.13,1008.34 1160.5,1008.5C 1161.07,1003.6 1162.91,999.27 1166,995.5C 1166.56,997.595 1167.06,997.762 1167.5,996C 1166.35,992.392 1166.35,988.725 1167.5,985C 1169.18,983.055 1169.85,981.055 1169.5,979C 1170.38,971.807 1173.04,965.474 1177.5,960C 1177.17,959.667 1176.83,959.333 1176.5,959C 1178.72,955.395 1180.55,951.562 1182,947.5C 1182.98,945.68 1184.48,944.513 1186.5,944C 1185.66,942.989 1185.33,941.822 1185.5,940.5C 1186.17,939.153 1186.17,937.986 1185.5,937C 1187.03,936.3 1188.03,935.134 1188.5,933.5C 1205.16,928.835 1220.83,922.002 1235.5,913C 1237.84,909.807 1240.84,907.64 1244.5,906.5C 1244.35,905.448 1244.52,904.448 1245,903.5C 1247.47,902.896 1249.47,901.562 1251,899.5C 1258.15,883.013 1256.65,867.013 1246.5,851.5C 1244.81,848.976 1242.64,846.976 1240,845.5C 1239.52,844.552 1239.35,843.552 1239.5,842.5C 1234.35,839.807 1229.35,836.64 1224.5,833C 1216.8,830.474 1209.13,827.974 1201.5,825.5C 1184.4,823.849 1167.4,824.349 1150.5,827C 1148.55,827.983 1146.72,829.15 1145,830.5C 1144.67,830.167 1144.33,829.833 1144,829.5C 1140.05,830.19 1136.22,831.356 1132.5,833C 1111.75,843.362 1090.42,853.529 1068.5,863.5C 1062.54,864.496 1056.54,864.829 1050.5,864.5C 1088.76,799.246 1127.42,734.246 1166.5,669.5C 1175.98,652.549 1185.98,635.882 1196.5,619.5C 1200.77,611.954 1204.77,604.288 1208.5,596.5C 1206.31,586.713 1200.31,582.88 1190.5,585C 1157.31,613.367 1124.64,642.2 1092.5,671.5C 1087.17,675.492 1081.84,679.492 1076.5,683.5C 1075,684.842 1074.33,686.508 1074.5,688.5C 1073.17,688.5 1071.83,688.5 1070.5,688.5C 1074.11,676.226 1077.11,664.06 1079.5,652C 1084.25,639.731 1088.41,627.231 1092,614.5C 1096.58,591.912 1100.75,569.245 1104.5,546.5C 1105.35,538.174 1105.52,529.841 1105,521.5C 1101.14,515.099 1096.81,509.099 1092,503.5C 1090.99,502.663 1089.82,502.33 1088.5,502.5C 1088.86,500.089 1087.86,498.589 1085.5,498C 1086.41,496.301 1086.74,494.467 1086.5,492.5C 1089.02,487.498 1091.68,482.498 1094.5,477.5C 1098.91,472.344 1102.58,466.677 1105.5,460.5C 1121.65,436.709 1137.32,412.709 1152.5,388.5 Z"/></g>
<g><path style="opacity:1" fill="#013a6a" d="M 660.5,522.5 C 651.725,533.551 649.559,545.884 654,559.5C 656.639,565.748 658.806,572.081 660.5,578.5C 659.317,577.496 657.984,576.662 656.5,576C 657.198,575.029 657.198,573.863 656.5,572.5C 655.041,570.417 653.708,568.25 652.5,566C 652.833,565.667 653.167,565.333 653.5,565C 652.079,562.139 651.079,559.139 650.5,556C 650.833,555.667 651.167,555.333 651.5,555C 650.833,549.333 650.167,543.667 649.5,538C 650.406,535.553 651.239,533.053 652,530.5C 653.758,529.531 654.258,528.364 653.5,527C 654.5,526.667 655.5,526.333 656.5,526C 655.72,524.927 655.887,523.76 657,522.5C 657.986,523.171 659.153,523.171 660.5,522.5 Z"/></g>
<g><path style="opacity:1" fill="#fd2f02" d="M 1050.5,864.5 C 1044.14,864.904 1037.81,865.571 1031.5,866.5C 1029.5,866.167 1027.5,865.833 1025.5,865.5C 1022.79,855.672 1021.95,845.672 1023,835.5C 1024.51,825.641 1026.84,815.975 1030,806.5C 1047.21,768.426 1060.71,729.093 1070.5,688.5C 1071.83,688.5 1073.17,688.5 1074.5,688.5C 1074.33,686.508 1075,684.842 1076.5,683.5C 1081.84,679.492 1087.17,675.492 1092.5,671.5C 1124.64,642.2 1157.31,613.367 1190.5,585C 1200.31,582.88 1206.31,586.713 1208.5,596.5C 1204.77,604.288 1200.77,611.954 1196.5,619.5C 1185.98,635.882 1175.98,652.549 1166.5,669.5C 1127.42,734.246 1088.76,799.246 1050.5,864.5 Z"/></g>
<g><path style="opacity:1" fill="#013768" d="M 686.5,641.5 C 692.652,653.371 697.985,665.704 702.5,678.5C 700.314,677.177 698.814,675.177 698,672.5C 696.996,669.038 695.83,665.704 694.5,662.5C 693.5,662.5 692.5,662.5 691.5,662.5C 691.66,660.801 691.494,659.134 691,657.5C 688.121,655.592 687.288,652.592 688.5,648.5C 687.106,646.354 686.44,644.021 686.5,641.5 Z"/></g>
<g><path style="opacity:1" fill="#003c6f" d="M 605.5,804.5 C 594.21,804.387 587.043,809.72 584,820.5C 582.968,827.419 583.635,834.086 586,840.5C 589.285,846.098 592.785,851.431 596.5,856.5C 595.194,856.121 593.861,855.788 592.5,855.5C 591.391,853.615 590.557,851.615 590,849.5C 587.833,848 586,846.167 584.5,844C 584.833,843.667 585.167,843.333 585.5,843C 584.89,841.053 584.057,839.219 583,837.5C 582.81,831.584 582.31,825.751 581.5,820C 582.051,818.602 582.384,817.268 582.5,816C 581.643,815.311 580.977,814.478 580.5,813.5C 581.806,811.069 582.806,811.403 583.5,814.5C 584.949,812.389 585.949,810.056 586.5,807.5C 589.149,805.45 592.149,804.283 595.5,804C 595.167,803.667 594.833,803.333 594.5,803C 596.333,802.833 598.167,802.667 600,802.5C 602.295,802.547 604.129,803.213 605.5,804.5 Z"/></g>
<g><path style="opacity:1" fill="#030303" d="M 981.5,418.5 C 995.743,424.9 1009.41,432.4 1022.5,441C 1033.41,448.779 1044.08,456.946 1054.5,465.5C 1064.01,474.847 1073.35,484.347 1082.5,494C 1084.19,494.484 1085.53,493.984 1086.5,492.5C 1086.74,494.467 1086.41,496.301 1085.5,498C 1087.86,498.589 1088.86,500.089 1088.5,502.5C 1089.82,502.33 1090.99,502.663 1092,503.5C 1096.81,509.099 1101.14,515.099 1105,521.5C 1105.52,529.841 1105.35,538.174 1104.5,546.5C 1100.75,569.245 1096.58,591.912 1092,614.5C 1088.41,627.231 1084.25,639.731 1079.5,652C 1077.11,664.06 1074.11,676.226 1070.5,688.5C 1060.71,729.093 1047.21,768.426 1030,806.5C 1026.84,815.975 1024.51,825.641 1023,835.5C 1021.95,845.672 1022.79,855.672 1025.5,865.5C 1027.5,865.833 1029.5,866.167 1031.5,866.5C 1037.81,865.571 1044.14,864.904 1050.5,864.5C 1056.54,864.829 1062.54,864.496 1068.5,863.5C 1090.42,853.529 1111.75,843.362 1132.5,833C 1136.22,831.356 1140.05,830.19 1144,829.5C 1144.33,829.833 1144.67,830.167 1145,830.5C 1146.72,829.15 1148.55,827.983 1150.5,827C 1167.4,824.349 1184.4,823.849 1201.5,825.5C 1209.13,827.974 1216.8,830.474 1224.5,833C 1229.35,836.64 1234.35,839.807 1239.5,842.5C 1239.35,843.552 1239.52,844.552 1240,845.5C 1242.64,846.976 1244.81,848.976 1246.5,851.5C 1256.65,867.013 1258.15,883.013 1251,899.5C 1249.47,901.562 1247.47,902.896 1245,903.5C 1244.52,904.448 1244.35,905.448 1244.5,906.5C 1240.84,907.64 1237.84,909.807 1235.5,913C 1220.83,922.002 1205.16,928.835 1188.5,933.5C 1188.03,935.134 1187.03,936.3 1185.5,937C 1186.17,937.986 1186.17,939.153 1185.5,940.5C 1184.54,940.953 1183.71,941.619 1183,942.5C 1180.1,948.735 1176.77,954.735 1173,960.5C 1170.29,969.024 1167.96,977.691 1166,986.5C 1164.35,994.627 1160.85,1001.79 1155.5,1008C 1150.32,1010.88 1145.65,1014.38 1141.5,1018.5C 1138.64,1019.51 1136.14,1021.17 1134,1023.5C 1132.08,1027 1129.92,1030.34 1127.5,1033.5C 1126.92,1038.85 1124.25,1042.69 1119.5,1045C 1120.75,1046.46 1120.75,1047.96 1119.5,1049.5C 1115.38,1051.13 1111.38,1052.96 1107.5,1055C 1099.66,1061.52 1091.33,1067.19 1082.5,1072C 1061.92,1077.23 1040.92,1079.73 1019.5,1079.5C 1015.77,1087.63 1012.6,1095.97 1010,1104.5C 1008.13,1106.78 1006.63,1109.28 1005.5,1112C 1006.02,1112.56 1006.36,1113.23 1006.5,1114C 1000.13,1127.88 994.292,1141.71 989,1155.5C 987.336,1163.15 985.836,1170.82 984.5,1178.5C 983.761,1178.37 983.094,1178.54 982.5,1179C 983.097,1180.06 983.43,1181.23 983.5,1182.5C 979.865,1213.59 981.532,1244.25 988.5,1274.5C 988.928,1285.28 988.095,1295.94 986,1306.5C 977.839,1317.32 970.506,1328.65 964,1340.5C 954.443,1352.05 945.276,1363.89 936.5,1376C 915.566,1381.78 894.232,1385.28 872.5,1386.5C 858.539,1386.8 845.539,1383.47 833.5,1376.5C 823.825,1369.48 814.492,1362.15 805.5,1354.5C 799.226,1346.92 793.392,1338.92 788,1330.5C 786.058,1325.62 783.892,1320.96 781.5,1316.5C 782.641,1314.45 782.641,1312.45 781.5,1310.5C 781.244,1303.78 781.577,1297.11 782.5,1290.5C 786.195,1260.45 787.195,1230.45 785.5,1200.5C 785.795,1198.26 785.461,1196.26 784.5,1194.5C 784.537,1160.27 778.371,1127.61 766,1096.5C 763.735,1090.77 760.568,1085.77 756.5,1081.5C 745.158,1080 733.825,1078.67 722.5,1077.5C 721.609,1076.89 720.609,1076.56 719.5,1076.5C 709.524,1076.13 700.191,1073.3 691.5,1068C 682.333,1061.58 672.999,1055.42 663.5,1049.5C 660.574,1045.59 657.574,1041.92 654.5,1038.5C 654.613,1035.95 653.946,1033.62 652.5,1031.5C 649.709,1028.05 646.876,1024.72 644,1021.5C 643.383,1020.55 643.549,1019.72 644.5,1019C 641.588,1018.72 638.921,1017.89 636.5,1016.5C 623.929,1008.02 616.762,996.018 615,980.5C 614.392,978.934 613.558,977.6 612.5,976.5C 612.067,971.027 610.9,965.694 609,960.5C 602.461,949.774 596.128,938.774 590,927.5C 588.711,917.878 587.878,908.211 587.5,898.5C 594.362,895.237 601.362,892.237 608.5,889.5C 612.336,885.624 613.503,880.957 612,875.5C 606.345,869.498 601.178,863.165 596.5,856.5C 592.785,851.431 589.285,846.098 586,840.5C 583.635,834.086 582.968,827.419 584,820.5C 587.043,809.72 594.21,804.387 605.5,804.5C 613.483,807.008 621.483,809.841 629.5,813C 651.427,823.629 673.427,834.296 695.5,845C 707.201,853.095 719.368,860.262 732,866.5C 736.751,865.709 741.584,865.709 746.5,866.5C 748.833,866.5 751.167,866.5 753.5,866.5C 757.639,867.563 761.972,868.23 766.5,868.5C 766.737,867.209 766.404,866.209 765.5,865.5C 764.274,855.967 761.941,846.967 758.5,838.5C 758.305,832.824 757.305,827.324 755.5,822C 741.241,773.239 723.574,725.405 702.5,678.5C 697.985,665.704 692.652,653.371 686.5,641.5C 681.27,626.757 675.77,612.09 670,597.5C 667.141,590.89 663.974,584.556 660.5,578.5C 658.806,572.081 656.639,565.748 654,559.5C 649.559,545.884 651.725,533.551 660.5,522.5C 679.069,501.83 700.402,483.33 724.5,467C 757.051,447.121 790.051,428.287 823.5,410.5C 838.147,405.788 853.147,402.621 868.5,401C 885.539,400.531 902.372,400.364 919,400.5C 919.5,401 920,401.5 920.5,402C 935.448,404.21 950.114,407.377 964.5,411.5C 969.993,414.344 975.659,416.678 981.5,418.5 Z"/></g>
<g><path style="opacity:1" fill="#fbfbfb" d="M 598.5,811.5 C 603.33,811.387 607.997,812.22 612.5,814C 646.687,828.055 679.687,844.388 711.5,863C 690.252,865.389 668.919,867.389 647.5,869C 638.161,869.865 629.328,872.365 621,876.5C 610.895,864.396 601.561,851.729 593,838.5C 589.412,830.316 589.745,822.316 594,814.5C 595.409,813.219 596.909,812.219 598.5,811.5 Z"/></g>
<g><path style="opacity:1" fill="#fefefe" d="M 884.5,406.5 C 937.852,406.451 985.852,422.284 1028.5,454C 1054.63,473.795 1077.8,496.629 1098,522.5C 1096.66,552.906 1092.32,582.906 1085,612.5C 1072.53,654.72 1060.53,697.054 1049,739.5C 1041.06,760.659 1032.73,781.659 1024,802.5C 1015.48,823.65 1013.65,845.316 1018.5,867.5C 977.604,867.739 941.604,880.905 910.5,907C 906.465,910.7 902.798,914.7 899.5,919C 893.833,919.667 888.167,919.667 882.5,919C 853.085,887.631 816.752,870.798 773.5,868.5C 767.003,835.512 758.17,803.178 747,771.5C 737.555,745.278 727.555,719.278 717,693.5C 696.484,646.61 677.15,599.277 659,551.5C 658.333,547.833 658.333,544.167 659,540.5C 660.973,534.551 663.973,529.217 668,524.5C 692.284,498.542 719.784,476.708 750.5,459C 775.34,445.079 800.34,431.413 825.5,418C 844.761,411.38 864.428,407.547 884.5,406.5 Z"/></g>
<g><path style="opacity:1" fill="#fcfcfc" d="M 1164.5,831.5 C 1177.21,831.126 1189.88,831.626 1202.5,833C 1225.78,836.959 1240.95,850.126 1248,872.5C 1250.14,886.084 1245.64,896.917 1234.5,905C 1221.67,913.118 1208,919.618 1193.5,924.5C 1193.17,923.333 1192.83,922.167 1192.5,921C 1193.61,913.517 1194.11,906.017 1194,898.5C 1180.95,893.773 1169.78,886.273 1160.5,876C 1152.19,872.422 1143.52,870.088 1134.5,869C 1117.49,867.245 1100.49,865.578 1083.5,864C 1104.81,853.51 1126.48,843.843 1148.5,835C 1153.95,833.745 1159.29,832.578 1164.5,831.5 Z"/></g>
<g><path style="opacity:0.227" fill="#000000" d="M 1702.5,841.5 C 1703.5,841.5 1704.5,841.5 1705.5,841.5C 1705.5,842.5 1705.5,843.5 1705.5,844.5C 1704.5,844.5 1703.5,844.5 1702.5,844.5C 1702.5,843.5 1702.5,842.5 1702.5,841.5 Z"/></g>
<g><path style="opacity:1" fill="#f83009" d="M 758.5,838.5 C 761.941,846.967 764.274,855.967 765.5,865.5C 761.6,866.43 757.6,866.763 753.5,866.5C 751.167,866.5 748.833,866.5 746.5,866.5C 746.343,865.127 746.51,863.793 747,862.5C 751.526,854.814 755.36,846.814 758.5,838.5 Z"/></g>
<g><path style="opacity:1" fill="#a93830" d="M 765.5,865.5 C 766.404,866.209 766.737,867.209 766.5,868.5C 761.972,868.23 757.639,867.563 753.5,866.5C 757.6,866.763 761.6,866.43 765.5,865.5 Z"/></g>
<g><path style="opacity:1" fill="#fdfdfd" d="M 668.5,901.5 C 703.191,901.071 737.857,901.571 772.5,903C 785.805,904.261 798.805,906.928 811.5,911C 842.135,923.76 854.301,946.593 848,979.5C 844.734,996.898 840.068,1013.9 834,1030.5C 828.565,1044.94 818.399,1054.1 803.5,1058C 772.104,1064.21 740.771,1063.88 709.5,1057C 686.428,1051.91 669.928,1038.75 660,1017.5C 651.771,993.251 645.104,968.584 640,943.5C 633.989,918.44 643.489,904.44 668.5,901.5 Z"/></g>
<g><path style="opacity:1" fill="#fdfdfd" d="M 1031.5,900.5 C 1058.17,900.634 1084.84,901.134 1111.5,902C 1136.93,903.12 1147.1,916.287 1142,941.5C 1137.28,964.391 1131.61,987.057 1125,1009.5C 1117.74,1033.1 1102.24,1048.26 1078.5,1055C 1043.22,1064.49 1007.89,1064.82 972.5,1056C 963.552,1052.61 956.719,1046.78 952,1038.5C 942.412,1017.82 936.079,996.154 933,973.5C 929.137,946.727 938.97,926.893 962.5,914C 984.907,905.808 1007.91,901.308 1031.5,900.5 Z"/></g>
<g><path style="opacity:1" fill="#808383" d="M 880.5,963.5 C 883.817,962.835 887.317,962.501 891,962.5C 894.902,962.512 898.402,963.179 901.5,964.5C 894.588,963.538 887.588,963.205 880.5,963.5 Z"/></g>
<g><path style="opacity:1" fill="#fdfefe" d="M 880.5,963.5 C 887.588,963.205 894.588,963.538 901.5,964.5C 903.721,977.385 906.888,990.051 911,1002.5C 911.465,1003.93 912.299,1005.1 913.5,1006C 918.522,1007.75 922.688,1010.58 926,1014.5C 929.572,1029.3 935.572,1042.97 944,1055.5C 954.9,1065.53 967.733,1071.7 982.5,1074C 992.565,1075.17 1002.56,1076.67 1012.5,1078.5C 1003.82,1101.7 994.656,1124.7 985,1147.5C 975.021,1175.02 971.688,1203.36 975,1232.5C 977.602,1250.11 979.769,1267.78 981.5,1285.5C 981.629,1292.72 980.463,1299.72 978,1306.5C 963.869,1327.26 949.369,1347.76 934.5,1368C 926.921,1371.56 918.921,1373.9 910.5,1375C 892.609,1378.61 874.609,1379.61 856.5,1378C 847.063,1375.61 838.397,1371.61 830.5,1366C 814.106,1354.27 801.272,1339.44 792,1321.5C 789.394,1315.26 787.894,1308.76 787.5,1302C 796.472,1244.29 795.305,1186.79 784,1129.5C 779.863,1111.76 773.363,1094.92 764.5,1079C 778.201,1077.22 791.868,1075.22 805.5,1073C 815.615,1070.27 824.949,1065.94 833.5,1060C 839.941,1053.55 844.774,1046.05 848,1037.5C 850.821,1029.88 853.487,1022.22 856,1014.5C 859.092,1011.1 862.926,1008.6 867.5,1007C 869.617,1005.27 871.117,1003.1 872,1000.5C 875.173,988.118 878.006,975.785 880.5,963.5 Z"/></g>
<g><path style="opacity:1" fill="#013b6e" d="M 1185.5,940.5 C 1185.33,941.822 1185.66,942.989 1186.5,944C 1184.48,944.513 1182.98,945.68 1182,947.5C 1180.55,951.562 1178.72,955.395 1176.5,959C 1176.83,959.333 1177.17,959.667 1177.5,960C 1173.04,965.474 1170.38,971.807 1169.5,979C 1169.85,981.055 1169.18,983.055 1167.5,985C 1166.35,988.725 1166.35,992.392 1167.5,996C 1167.06,997.762 1166.56,997.595 1166,995.5C 1162.91,999.27 1161.07,1003.6 1160.5,1008.5C 1159.13,1008.34 1157.79,1008.51 1156.5,1009C 1154.79,1011.59 1152.96,1014.09 1151,1016.5C 1150.67,1016.17 1150.33,1015.83 1150,1015.5C 1147.42,1017.25 1144.59,1018.25 1141.5,1018.5C 1145.65,1014.38 1150.32,1010.88 1155.5,1008C 1160.85,1001.79 1164.35,994.627 1166,986.5C 1167.96,977.691 1170.29,969.024 1173,960.5C 1176.77,954.735 1180.1,948.735 1183,942.5C 1183.71,941.619 1184.54,940.953 1185.5,940.5 Z"/></g>
<g><path style="opacity:1" fill="#013667" d="M 612.5,976.5 C 613.558,977.6 614.392,978.934 615,980.5C 616.762,996.018 623.929,1008.02 636.5,1016.5C 634.799,1016.03 633.299,1016.03 632,1016.5C 628.158,1013.67 624.325,1010.83 620.5,1008C 620.957,1007.59 621.291,1007.09 621.5,1006.5C 619.378,1003.09 617.378,999.591 615.5,996C 615.944,992.48 614.944,989.147 612.5,986C 612.678,983.045 612.678,979.879 612.5,976.5 Z"/></g>
<g><path style="opacity:1" fill="#fd3002" d="M 654.5,1038.5 C 657.574,1041.92 660.574,1045.59 663.5,1049.5C 672.999,1055.42 682.333,1061.58 691.5,1068C 700.191,1073.3 709.524,1076.13 719.5,1076.5C 719.167,1077.83 718.833,1079.17 718.5,1080.5C 686.81,1110.3 655.81,1140.64 625.5,1171.5C 615.519,1180.48 605.853,1189.81 596.5,1199.5C 588.407,1204.23 582.074,1202.56 577.5,1194.5C 576.348,1191.89 576.182,1189.23 577,1186.5C 588.756,1163.3 600.589,1140.64 612.5,1118.5C 613.89,1117.1 614.89,1115.43 615.5,1113.5C 624.629,1094.73 633.963,1076.56 643.5,1059C 647.347,1052.3 651.014,1045.47 654.5,1038.5 Z"/></g>
<g><path style="opacity:1" fill="#833546" d="M 719.5,1076.5 C 720.609,1076.56 721.609,1076.89 722.5,1077.5C 721.455,1078.88 720.122,1079.88 718.5,1080.5C 718.833,1079.17 719.167,1077.83 719.5,1076.5 Z"/></g>
<g><path style="opacity:1" fill="#8f4549" d="M 615.5,1113.5 C 614.89,1115.43 613.89,1117.1 612.5,1118.5C 612.241,1116.01 613.241,1114.34 615.5,1113.5 Z"/></g>
<g><path style="opacity:1" fill="#a7473e" d="M 784.5,1194.5 C 785.461,1196.26 785.795,1198.26 785.5,1200.5C 784.778,1199.45 783.778,1198.78 782.5,1198.5C 783.167,1197.17 783.833,1195.83 784.5,1194.5 Z"/></g>
<g><path style="opacity:1" fill="#fd3002" d="M 782.5,1198.5 C 783.778,1198.78 784.778,1199.45 785.5,1200.5C 787.195,1230.45 786.195,1260.45 782.5,1290.5C 781.18,1293.43 780.514,1296.76 780.5,1300.5C 780.502,1304.02 780.835,1307.35 781.5,1310.5C 782.641,1312.45 782.641,1314.45 781.5,1316.5C 758.9,1354.63 735.9,1392.97 712.5,1431.5C 705.063,1442.71 698.396,1454.37 692.5,1466.5C 680.196,1486.15 668.529,1505.65 657.5,1525C 649.334,1537.84 641.334,1551.34 633.5,1565.5C 631.199,1569.26 628.533,1572.76 625.5,1576C 623.038,1583.93 619.038,1590.93 613.5,1597C 612.499,1599.53 611.166,1602.36 609.5,1605.5C 602.916,1612.13 596.416,1612.13 590,1605.5C 588.456,1602.09 587.289,1598.59 586.5,1595C 591.874,1586.21 596.874,1577.21 601.5,1568C 615.487,1537.57 630.487,1506.74 646.5,1475.5C 650.25,1468.32 653.917,1460.65 657.5,1452.5C 663.812,1440.54 670.146,1428.54 676.5,1416.5C 677.171,1415.15 677.171,1413.99 676.5,1413C 712.757,1341.98 748.091,1270.48 782.5,1198.5 Z"/></g>
<g><path style="opacity:1" fill="#0d0d0d" d="M 933.5,1237.5 C 935.564,1237.76 936.897,1238.93 937.5,1241C 905.53,1257.32 872.03,1269.49 837,1277.5C 836.598,1276.13 836.098,1274.79 835.5,1273.5C 864.185,1266.1 892.185,1256.6 919.5,1245C 924.419,1242.71 929.086,1240.21 933.5,1237.5 Z"/></g>
<g><path style="opacity:1" fill="#013c6e" d="M 984.5,1178.5 C 984.923,1179.26 985.257,1180.1 985.5,1181C 981.541,1204.68 981.707,1228.18 986,1251.5C 987.487,1252.25 987.654,1253.09 986.5,1254C 987.4,1260.48 988.4,1266.98 989.5,1273.5C 989.376,1274.11 989.043,1274.44 988.5,1274.5C 981.532,1244.25 979.865,1213.59 983.5,1182.5C 983.43,1181.23 983.097,1180.06 982.5,1179C 983.094,1178.54 983.761,1178.37 984.5,1178.5 Z"/></g>
<g><path style="opacity:1" fill="#932b1d" d="M 782.5,1290.5 C 781.577,1297.11 781.244,1303.78 781.5,1310.5C 780.835,1307.35 780.502,1304.02 780.5,1300.5C 780.514,1296.76 781.18,1293.43 782.5,1290.5 Z"/></g>
</svg>
